<svg width="30" height="30" viewBox="0 0 30 30" fill="none" xmlns="http://www.w3.org/2000/svg">
<path fill-rule="evenodd" clip-rule="evenodd" d="M14.75 29.75C22.8962 29.75 29.5 23.1462 29.5 15C29.5 6.8538 22.8962 0.25 14.75 0.25C6.6038 0.25 0 6.8538 0 15C0 23.1462 6.6038 29.75 14.75 29.75ZM11.7107 7.66787C12.4953 7.63468 12.7451 7.625 14.75 7.625C16.7549 7.625 17.0043 7.63238 17.7893 7.66787C18.5749 7.7066 19.1101 7.82876 19.5803 8.01131C20.0733 8.19533 20.5194 8.48646 20.8863 8.86369C21.262 9.23187 21.5529 9.67756 21.7387 10.1697C21.9185 10.6371 22.0434 11.1751 22.0821 11.9607C22.1153 12.7453 22.125 12.9951 22.125 15C22.125 17.0049 22.1176 17.2543 22.0821 18.0393C22.0434 18.8249 21.9189 19.3601 21.7387 19.8303C21.5547 20.3233 21.2635 20.7694 20.8863 21.1363C20.5181 21.512 20.0724 21.8029 19.5803 21.9887C19.1101 22.1685 18.5749 22.2934 17.7893 22.3321C17.0047 22.3653 16.7549 22.375 14.75 22.375C12.7451 22.375 12.4957 22.3676 11.7107 22.3321C10.9251 22.2934 10.3899 22.1689 9.91969 21.9887C9.42695 21.8041 8.98101 21.5131 8.61369 21.1363C8.23799 20.7681 7.9471 20.3224 7.76131 19.8303C7.57876 19.3601 7.4566 18.8249 7.41787 18.0393C7.38468 17.2547 7.375 17.0049 7.375 15C7.375 12.9951 7.38238 12.7457 7.41787 11.9607C7.4566 11.1728 7.57876 10.6399 7.76131 10.1697C7.94589 9.67695 8.23694 9.23101 8.61369 8.86369C8.98187 8.48799 9.42756 8.1971 9.91969 8.01131C10.3899 7.82876 10.9228 7.7066 11.7107 7.66787ZM17.7322 8.99554C16.954 8.96235 16.7189 8.95267 14.75 8.95267L14.7196 8.93146C12.7982 8.93146 12.5306 8.9411 11.7939 8.96762L11.7356 8.96972C11.015 9.00568 10.6287 9.12554 10.3692 9.2265C10.0188 9.3565 9.77817 9.52246 9.52139 9.77923C9.26231 10.0388 9.09682 10.2785 8.96958 10.6293C8.86632 10.8865 8.7483 11.2821 8.71004 12.0026C8.70845 12.0501 8.70691 12.0955 8.70542 12.1395C8.6823 12.8208 8.67132 13.1446 8.67132 14.9894C8.67132 16.8385 8.68234 17.1597 8.70555 17.8356C8.707 17.8778 8.7085 17.9215 8.71004 17.967C8.7483 18.6875 8.86632 19.084 8.96958 19.3403C9.09682 19.6837 9.26185 19.9308 9.52139 20.1903C9.77863 20.4476 10.0188 20.6034 10.3692 20.7431C10.6287 20.844 11.0247 20.9639 11.7425 21.0026C12.5257 21.0386 12.7557 21.0483 14.7297 21.0483C16.7037 21.0483 16.9342 21.0386 17.7165 21.0054C18.437 20.9717 18.8335 20.8519 19.0898 20.7505C19.4101 20.6319 19.7003 20.4443 19.9399 20.2009C20.1971 19.9391 20.3529 19.6971 20.4926 19.3509C20.5936 19.0913 20.7134 18.7004 20.7522 17.9826C20.7881 17.2045 20.7978 16.9689 20.7978 15.0005C20.7978 13.032 20.7881 12.7964 20.7549 12.0183C20.7213 11.3005 20.6014 10.9096 20.5 10.6501C20.3827 10.3298 20.1949 10.0401 19.9505 9.80228C19.7117 9.55742 19.4213 9.36891 19.1004 9.25047C18.8409 9.14905 18.4499 9.02919 17.7322 8.99554ZM13.3009 11.5026C13.7603 11.3124 14.2527 11.2146 14.75 11.2148C15.2473 11.2146 15.7397 11.3124 16.1991 11.5026C16.6586 11.6928 17.076 11.9717 17.4276 12.3233C17.7792 12.6749 18.0581 13.0924 18.2483 13.5518C18.4385 14.0112 18.5363 14.5037 18.5362 15.0009C18.5363 15.4982 18.4385 15.9906 18.2483 16.45C18.0581 16.9095 17.7792 17.3269 17.4276 17.6785C17.076 18.0302 16.6586 18.309 16.1991 18.4992C15.7397 18.6894 15.2473 18.7873 14.75 18.7871C14.2527 18.7873 13.7603 18.6894 13.3009 18.4992C12.8414 18.309 12.424 18.0302 12.0724 17.6785C11.7208 17.3269 11.4419 16.9095 11.2517 16.45C11.0615 15.9906 10.9637 15.4982 10.9638 15.0009C10.9637 14.5037 11.0615 14.0112 11.2517 13.5518C11.4419 13.0924 11.7208 12.6749 12.0724 12.3233C12.424 11.9717 12.8414 11.6928 13.3009 11.5026ZM12.2915 15.0009C12.2915 16.3599 13.391 17.4594 14.75 17.4594C16.109 17.4594 17.2085 16.3599 17.2085 15.0009C17.2085 13.6419 16.109 12.5424 14.75 12.5424C13.391 12.5424 12.2915 13.6419 12.2915 15.0009ZM19.3139 11.6898C19.4801 11.5238 19.5736 11.2985 19.5739 11.0636C19.5739 10.5763 19.1746 10.1798 18.6874 10.1798C18.5712 10.1798 18.4562 10.2027 18.3488 10.2472C18.2415 10.2916 18.144 10.3568 18.0618 10.4389C17.9797 10.5211 17.9145 10.6186 17.8701 10.7259C17.8256 10.8333 17.8027 10.9483 17.8027 11.0645C17.8027 11.1807 17.8256 11.2957 17.8701 11.403C17.9145 11.5104 17.9797 11.6079 18.0618 11.69C18.144 11.7722 18.2415 11.8373 18.3488 11.8818C18.4562 11.9263 18.5712 11.9491 18.6874 11.9491C18.9223 11.9491 19.1477 11.8559 19.3139 11.6898Z" fill="white"/>
</svg>
