<svg width="32" height="33" viewBox="0 0 32 33" fill="none" xmlns="http://www.w3.org/2000/svg">
<path d="M16 0.570801C7.16333 0.570801 0 7.73413 0 16.5708C0 25.4075 7.16333 32.5708 16 32.5708C24.8367 32.5708 32 25.4075 32 16.5708C32 7.73413 24.8367 0.570801 16 0.570801ZM12.0833 23.2025H8.84333V12.7758H12.0833V23.2025ZM10.4433 11.4958C9.42 11.4958 8.75833 10.7708 8.75833 9.87413C8.75833 8.95913 9.44 8.2558 10.485 8.2558C11.53 8.2558 12.17 8.95913 12.19 9.87413C12.19 10.7708 11.53 11.4958 10.4433 11.4958ZM23.9167 23.2025H20.6767V17.4241C20.6767 16.0791 20.2067 15.1658 19.035 15.1658C18.14 15.1658 17.6083 15.7841 17.3733 16.3791C17.2867 16.5908 17.265 16.8908 17.265 17.1891V23.2008H14.0233V16.1008C14.0233 14.7991 13.9817 13.7108 13.9383 12.7741H16.7533L16.9017 14.2225H16.9667C17.3933 13.5425 18.4383 12.5391 20.1867 12.5391C22.3183 12.5391 23.9167 13.9675 23.9167 17.0375V23.2025Z" fill="#FFFFFF"/>
</svg>
