<svg width="278" height="51" viewBox="0 0 278 51" fill="none" xmlns="http://www.w3.org/2000/svg">
<rect width="278" height="51" rx="10" fill="url(#paint0_linear)"/>
<path d="M74.0908 34.216C72.8588 34.216 71.6908 34.056 70.5868 33.736C69.4988 33.4 68.6108 32.952 67.9228 32.392C67.5548 32.12 67.3708 31.736 67.3708 31.24C67.3708 30.904 67.4668 30.616 67.6588 30.376C67.8668 30.12 68.1068 29.992 68.3788 29.992C68.6668 29.992 68.9948 30.104 69.3628 30.328C70.0508 30.824 70.7708 31.184 71.5228 31.408C72.2748 31.632 73.1068 31.744 74.0188 31.744C75.1868 31.744 76.0828 31.544 76.7068 31.144C77.3308 30.728 77.6428 30.128 77.6428 29.344C77.6428 28.736 77.3468 28.272 76.7548 27.952C76.1788 27.616 75.2108 27.296 73.8508 26.992C72.4428 26.688 71.2988 26.336 70.4188 25.936C69.5388 25.536 68.8748 25.024 68.4268 24.4C67.9788 23.776 67.7548 22.984 67.7548 22.024C67.7548 21.032 68.0348 20.144 68.5948 19.36C69.1548 18.576 69.9308 17.968 70.9228 17.536C71.9308 17.088 73.0588 16.864 74.3068 16.864C76.5948 16.864 78.4588 17.472 79.8988 18.688C80.1068 18.864 80.2508 19.04 80.3308 19.216C80.4268 19.376 80.4748 19.584 80.4748 19.84C80.4748 20.176 80.3708 20.472 80.1628 20.728C79.9708 20.968 79.7388 21.088 79.4668 21.088C79.3068 21.088 79.1548 21.064 79.0108 21.016C78.8828 20.968 78.7068 20.88 78.4828 20.752C77.8268 20.272 77.1868 19.92 76.5628 19.696C75.9548 19.456 75.2028 19.336 74.3068 19.336C73.2188 19.336 72.3548 19.56 71.7148 20.008C71.0908 20.44 70.7788 21.048 70.7788 21.832C70.7788 22.488 71.0588 22.992 71.6188 23.344C72.1788 23.696 73.1308 24.024 74.4748 24.328C75.8988 24.648 77.0508 25.008 77.9308 25.408C78.8268 25.792 79.5068 26.288 79.9708 26.896C80.4508 27.504 80.6908 28.264 80.6908 29.176C80.6908 30.168 80.4108 31.048 79.8508 31.816C79.3068 32.568 78.5308 33.16 77.5228 33.592C76.5308 34.008 75.3868 34.216 74.0908 34.216ZM89.6115 21.976C91.0195 21.976 92.0675 22.376 92.7555 23.176C93.4435 23.976 93.7875 25.184 93.7875 26.8V32.704C93.7875 33.152 93.6515 33.504 93.3795 33.76C93.1235 34.016 92.7635 34.144 92.2995 34.144C91.8355 34.144 91.4675 34.016 91.1955 33.76C90.9235 33.504 90.7875 33.152 90.7875 32.704V26.968C90.7875 26.056 90.6115 25.392 90.2595 24.976C89.9235 24.56 89.3875 24.352 88.6515 24.352C87.7875 24.352 87.0915 24.624 86.5635 25.168C86.0515 25.712 85.7955 26.44 85.7955 27.352V32.704C85.7955 33.152 85.6595 33.504 85.3875 33.76C85.1155 34.016 84.7475 34.144 84.2835 34.144C83.8195 34.144 83.4515 34.016 83.1795 33.76C82.9235 33.504 82.7955 33.152 82.7955 32.704V23.416C82.7955 23 82.9315 22.664 83.2035 22.408C83.4755 22.152 83.8435 22.024 84.3075 22.024C84.7235 22.024 85.0595 22.152 85.3155 22.408C85.5875 22.648 85.7235 22.968 85.7235 23.368V24.016C86.1235 23.36 86.6595 22.856 87.3315 22.504C88.0035 22.152 88.7635 21.976 89.6115 21.976ZM101.443 21.976C103.075 21.976 104.283 22.384 105.067 23.2C105.867 24 106.267 25.224 106.267 26.872V32.728C106.267 33.16 106.139 33.504 105.883 33.76C105.627 34 105.275 34.12 104.827 34.12C104.411 34.12 104.067 33.992 103.795 33.736C103.539 33.48 103.411 33.144 103.411 32.728V32.2C103.139 32.824 102.707 33.312 102.115 33.664C101.539 34.016 100.867 34.192 100.099 34.192C99.3145 34.192 98.6025 34.032 97.9625 33.712C97.3225 33.392 96.8185 32.952 96.4505 32.392C96.0825 31.832 95.8985 31.208 95.8985 30.52C95.8985 29.656 96.1145 28.976 96.5465 28.48C96.9945 27.984 97.7145 27.624 98.7065 27.4C99.6985 27.176 101.067 27.064 102.811 27.064H103.411V26.512C103.411 25.728 103.243 25.16 102.907 24.808C102.571 24.44 102.027 24.256 101.275 24.256C100.811 24.256 100.339 24.328 99.8585 24.472C99.3785 24.6 98.8105 24.792 98.1545 25.048C97.7385 25.256 97.4345 25.36 97.2425 25.36C96.9545 25.36 96.7145 25.256 96.5225 25.048C96.3465 24.84 96.2585 24.568 96.2585 24.232C96.2585 23.96 96.3225 23.728 96.4505 23.536C96.5945 23.328 96.8265 23.136 97.1465 22.96C97.7065 22.656 98.3705 22.416 99.1385 22.24C99.9225 22.064 100.691 21.976 101.443 21.976ZM100.699 32.032C101.499 32.032 102.147 31.768 102.643 31.24C103.155 30.696 103.411 30 103.411 29.152V28.648H102.979C101.907 28.648 101.075 28.696 100.483 28.792C99.8905 28.888 99.4665 29.056 99.2105 29.296C98.9545 29.536 98.8265 29.864 98.8265 30.28C98.8265 30.792 99.0025 31.216 99.3545 31.552C99.7225 31.872 100.171 32.032 100.699 32.032ZM115.579 21.976C116.587 21.976 117.483 22.232 118.267 22.744C119.067 23.256 119.683 23.984 120.115 24.928C120.563 25.856 120.787 26.928 120.787 28.144C120.787 29.36 120.563 30.424 120.115 31.336C119.683 32.248 119.075 32.952 118.291 33.448C117.507 33.944 116.603 34.192 115.579 34.192C114.747 34.192 114.003 34.016 113.347 33.664C112.691 33.312 112.187 32.824 111.835 32.2V37.096C111.835 37.512 111.699 37.84 111.427 38.08C111.155 38.32 110.795 38.44 110.347 38.44C109.899 38.44 109.531 38.312 109.243 38.056C108.971 37.8 108.835 37.464 108.835 37.048V23.44C108.835 23.008 108.963 22.664 109.219 22.408C109.491 22.152 109.851 22.024 110.299 22.024C110.747 22.024 111.107 22.152 111.379 22.408C111.651 22.664 111.787 23.008 111.787 23.44V24.04C112.139 23.384 112.643 22.88 113.299 22.528C113.971 22.16 114.731 21.976 115.579 21.976ZM114.787 31.864C115.731 31.864 116.467 31.544 116.995 30.904C117.523 30.248 117.787 29.328 117.787 28.144C117.787 26.928 117.523 25.984 116.995 25.312C116.467 24.64 115.731 24.304 114.787 24.304C113.827 24.304 113.083 24.632 112.555 25.288C112.043 25.944 111.787 26.88 111.787 28.096C111.787 29.296 112.043 30.224 112.555 30.88C113.083 31.536 113.827 31.864 114.787 31.864ZM127.978 34.192C126.81 34.192 125.778 33.944 124.882 33.448C124.002 32.952 123.322 32.248 122.842 31.336C122.362 30.424 122.122 29.36 122.122 28.144C122.122 26.928 122.37 25.856 122.866 24.928C123.378 23.984 124.09 23.256 125.002 22.744C125.914 22.232 126.962 21.976 128.146 21.976C128.77 21.976 129.394 22.064 130.018 22.24C130.658 22.416 131.218 22.656 131.698 22.96C132.21 23.296 132.466 23.72 132.466 24.232C132.466 24.584 132.378 24.872 132.202 25.096C132.042 25.304 131.826 25.408 131.554 25.408C131.378 25.408 131.194 25.368 131.002 25.288C130.81 25.208 130.618 25.112 130.426 25C130.074 24.792 129.738 24.632 129.418 24.52C129.098 24.392 128.73 24.328 128.314 24.328C127.322 24.328 126.554 24.656 126.01 25.312C125.482 25.952 125.218 26.88 125.218 28.096C125.218 29.296 125.482 30.224 126.01 30.88C126.554 31.52 127.322 31.84 128.314 31.84C128.714 31.84 129.066 31.784 129.37 31.672C129.69 31.544 130.042 31.376 130.426 31.168C130.666 31.024 130.874 30.92 131.05 30.856C131.226 30.776 131.402 30.736 131.578 30.736C131.834 30.736 132.05 30.848 132.226 31.072C132.402 31.296 132.49 31.576 132.49 31.912C132.49 32.184 132.426 32.424 132.298 32.632C132.186 32.824 131.994 33 131.722 33.16C131.226 33.48 130.65 33.736 129.994 33.928C129.338 34.104 128.666 34.192 127.978 34.192ZM140.872 21.976C143.624 21.976 145 23.584 145 26.8V32.704C145 33.152 144.864 33.504 144.592 33.76C144.336 34.016 143.976 34.144 143.512 34.144C143.048 34.144 142.68 34.016 142.408 33.76C142.136 33.504 142 33.152 142 32.704V26.8C142 25.952 141.824 25.336 141.472 24.952C141.136 24.552 140.6 24.352 139.864 24.352C139 24.352 138.304 24.624 137.776 25.168C137.264 25.712 137.008 26.44 137.008 27.352V32.704C137.008 33.152 136.872 33.504 136.6 33.76C136.328 34.016 135.96 34.144 135.496 34.144C135.032 34.144 134.664 34.016 134.392 33.76C134.136 33.504 134.008 33.152 134.008 32.704V18.352C134.008 17.936 134.144 17.6 134.416 17.344C134.704 17.088 135.072 16.96 135.52 16.96C135.968 16.96 136.328 17.08 136.6 17.32C136.872 17.56 137.008 17.888 137.008 18.304V23.896C137.408 23.272 137.936 22.8 138.592 22.48C139.264 22.144 140.024 21.976 140.872 21.976ZM152.655 21.976C154.287 21.976 155.495 22.384 156.279 23.2C157.079 24 157.479 25.224 157.479 26.872V32.728C157.479 33.16 157.351 33.504 157.095 33.76C156.839 34 156.487 34.12 156.039 34.12C155.623 34.12 155.279 33.992 155.007 33.736C154.751 33.48 154.623 33.144 154.623 32.728V32.2C154.351 32.824 153.919 33.312 153.327 33.664C152.751 34.016 152.079 34.192 151.311 34.192C150.527 34.192 149.815 34.032 149.175 33.712C148.535 33.392 148.031 32.952 147.663 32.392C147.295 31.832 147.111 31.208 147.111 30.52C147.111 29.656 147.327 28.976 147.759 28.48C148.207 27.984 148.927 27.624 149.919 27.4C150.911 27.176 152.279 27.064 154.023 27.064H154.623V26.512C154.623 25.728 154.455 25.16 154.119 24.808C153.783 24.44 153.239 24.256 152.487 24.256C152.023 24.256 151.551 24.328 151.071 24.472C150.591 24.6 150.023 24.792 149.367 25.048C148.951 25.256 148.647 25.36 148.455 25.36C148.167 25.36 147.927 25.256 147.735 25.048C147.559 24.84 147.471 24.568 147.471 24.232C147.471 23.96 147.535 23.728 147.663 23.536C147.807 23.328 148.039 23.136 148.359 22.96C148.919 22.656 149.583 22.416 150.351 22.24C151.135 22.064 151.903 21.976 152.655 21.976ZM151.911 32.032C152.711 32.032 153.359 31.768 153.855 31.24C154.367 30.696 154.623 30 154.623 29.152V28.648H154.191C153.119 28.648 152.287 28.696 151.695 28.792C151.103 28.888 150.679 29.056 150.423 29.296C150.167 29.536 150.039 29.864 150.039 30.28C150.039 30.792 150.215 31.216 150.567 31.552C150.935 31.872 151.383 32.032 151.911 32.032ZM166.144 31.912C166.944 31.96 167.344 32.32 167.344 32.992C167.344 33.376 167.184 33.672 166.864 33.88C166.56 34.072 166.12 34.152 165.544 34.12L164.896 34.072C162.208 33.88 160.864 32.44 160.864 29.752V24.52H159.664C159.232 24.52 158.896 24.424 158.656 24.232C158.432 24.04 158.32 23.76 158.32 23.392C158.32 23.024 158.432 22.744 158.656 22.552C158.896 22.36 159.232 22.264 159.664 22.264H160.864V20.056C160.864 19.624 161 19.28 161.272 19.024C161.544 18.768 161.912 18.64 162.376 18.64C162.824 18.64 163.184 18.768 163.456 19.024C163.728 19.28 163.864 19.624 163.864 20.056V22.264H165.904C166.336 22.264 166.664 22.36 166.888 22.552C167.128 22.744 167.248 23.024 167.248 23.392C167.248 23.76 167.128 24.04 166.888 24.232C166.664 24.424 166.336 24.52 165.904 24.52H163.864V29.968C163.864 31.152 164.408 31.784 165.496 31.864L166.144 31.912ZM176.263 34.144C175.799 34.144 175.423 34.008 175.135 33.736C174.863 33.448 174.727 33.064 174.727 32.584V18.544C174.727 18.08 174.855 17.72 175.111 17.464C175.383 17.208 175.751 17.08 176.215 17.08H182.119C183.927 17.08 185.335 17.536 186.343 18.448C187.351 19.344 187.855 20.608 187.855 22.24C187.855 23.872 187.351 25.144 186.343 26.056C185.335 26.968 183.927 27.424 182.119 27.424H177.823V32.584C177.823 33.064 177.679 33.448 177.391 33.736C177.119 34.008 176.743 34.144 176.263 34.144ZM181.735 25.048C183.863 25.048 184.927 24.12 184.927 22.264C184.927 20.408 183.863 19.48 181.735 19.48H177.823V25.048H181.735ZM194.61 21.976C196.242 21.976 197.45 22.384 198.234 23.2C199.034 24 199.434 25.224 199.434 26.872V32.728C199.434 33.16 199.306 33.504 199.05 33.76C198.794 34 198.442 34.12 197.994 34.12C197.578 34.12 197.234 33.992 196.962 33.736C196.706 33.48 196.578 33.144 196.578 32.728V32.2C196.306 32.824 195.874 33.312 195.282 33.664C194.706 34.016 194.034 34.192 193.266 34.192C192.482 34.192 191.77 34.032 191.13 33.712C190.49 33.392 189.986 32.952 189.618 32.392C189.25 31.832 189.066 31.208 189.066 30.52C189.066 29.656 189.282 28.976 189.714 28.48C190.162 27.984 190.882 27.624 191.874 27.4C192.866 27.176 194.234 27.064 195.978 27.064H196.578V26.512C196.578 25.728 196.41 25.16 196.074 24.808C195.738 24.44 195.194 24.256 194.442 24.256C193.978 24.256 193.506 24.328 193.026 24.472C192.546 24.6 191.978 24.792 191.322 25.048C190.906 25.256 190.602 25.36 190.41 25.36C190.122 25.36 189.882 25.256 189.69 25.048C189.514 24.84 189.426 24.568 189.426 24.232C189.426 23.96 189.49 23.728 189.618 23.536C189.762 23.328 189.994 23.136 190.314 22.96C190.874 22.656 191.538 22.416 192.306 22.24C193.09 22.064 193.858 21.976 194.61 21.976ZM193.866 32.032C194.666 32.032 195.314 31.768 195.81 31.24C196.322 30.696 196.578 30 196.578 29.152V28.648H196.146C195.074 28.648 194.242 28.696 193.65 28.792C193.058 28.888 192.634 29.056 192.378 29.296C192.122 29.536 191.994 29.864 191.994 30.28C191.994 30.792 192.17 31.216 192.522 31.552C192.89 31.872 193.338 32.032 193.866 32.032ZM208.555 22.024C208.971 21.992 209.299 22.08 209.539 22.288C209.779 22.496 209.899 22.808 209.899 23.224C209.899 23.656 209.795 23.976 209.587 24.184C209.379 24.392 209.003 24.528 208.459 24.592L207.739 24.664C206.795 24.76 206.099 25.08 205.651 25.624C205.219 26.168 205.003 26.848 205.003 27.664V32.704C205.003 33.168 204.859 33.528 204.571 33.784C204.283 34.024 203.923 34.144 203.491 34.144C203.059 34.144 202.699 34.024 202.411 33.784C202.139 33.528 202.003 33.168 202.003 32.704V23.416C202.003 22.968 202.139 22.624 202.411 22.384C202.699 22.144 203.051 22.024 203.467 22.024C203.883 22.024 204.219 22.144 204.475 22.384C204.731 22.608 204.859 22.936 204.859 23.368V24.328C205.163 23.624 205.611 23.08 206.203 22.696C206.811 22.312 207.483 22.096 208.219 22.048L208.555 22.024ZM217.885 31.912C218.685 31.96 219.085 32.32 219.085 32.992C219.085 33.376 218.925 33.672 218.605 33.88C218.301 34.072 217.861 34.152 217.285 34.12L216.637 34.072C213.949 33.88 212.605 32.44 212.605 29.752V24.52H211.405C210.973 24.52 210.637 24.424 210.397 24.232C210.173 24.04 210.061 23.76 210.061 23.392C210.061 23.024 210.173 22.744 210.397 22.552C210.637 22.36 210.973 22.264 211.405 22.264H212.605V20.056C212.605 19.624 212.741 19.28 213.013 19.024C213.285 18.768 213.653 18.64 214.117 18.64C214.565 18.64 214.925 18.768 215.197 19.024C215.469 19.28 215.605 19.624 215.605 20.056V22.264H217.645C218.077 22.264 218.405 22.36 218.629 22.552C218.869 22.744 218.989 23.024 218.989 23.392C218.989 23.76 218.869 24.04 218.629 24.232C218.405 24.424 218.077 24.52 217.645 24.52H215.605V29.968C215.605 31.152 216.149 31.784 217.237 31.864L217.885 31.912ZM226.984 21.976C228.392 21.976 229.44 22.376 230.128 23.176C230.816 23.976 231.16 25.184 231.16 26.8V32.704C231.16 33.152 231.024 33.504 230.752 33.76C230.496 34.016 230.136 34.144 229.672 34.144C229.208 34.144 228.84 34.016 228.568 33.76C228.296 33.504 228.16 33.152 228.16 32.704V26.968C228.16 26.056 227.984 25.392 227.632 24.976C227.296 24.56 226.76 24.352 226.024 24.352C225.16 24.352 224.464 24.624 223.936 25.168C223.424 25.712 223.168 26.44 223.168 27.352V32.704C223.168 33.152 223.032 33.504 222.76 33.76C222.488 34.016 222.12 34.144 221.656 34.144C221.192 34.144 220.824 34.016 220.552 33.76C220.296 33.504 220.168 33.152 220.168 32.704V23.416C220.168 23 220.304 22.664 220.576 22.408C220.848 22.152 221.216 22.024 221.68 22.024C222.096 22.024 222.432 22.152 222.688 22.408C222.96 22.648 223.096 22.968 223.096 23.368V24.016C223.496 23.36 224.032 22.856 224.704 22.504C225.376 22.152 226.136 21.976 226.984 21.976ZM243.015 30.784C243.287 30.784 243.503 30.888 243.663 31.096C243.839 31.304 243.927 31.584 243.927 31.936C243.927 32.432 243.631 32.848 243.039 33.184C242.495 33.488 241.879 33.736 241.191 33.928C240.503 34.104 239.847 34.192 239.223 34.192C237.335 34.192 235.839 33.648 234.735 32.56C233.631 31.472 233.079 29.984 233.079 28.096C233.079 26.896 233.319 25.832 233.799 24.904C234.279 23.976 234.951 23.256 235.815 22.744C236.695 22.232 237.687 21.976 238.791 21.976C239.847 21.976 240.767 22.208 241.551 22.672C242.335 23.136 242.943 23.792 243.375 24.64C243.807 25.488 244.023 26.488 244.023 27.64C244.023 28.328 243.719 28.672 243.111 28.672H236.031C236.127 29.776 236.439 30.592 236.967 31.12C237.495 31.632 238.263 31.888 239.271 31.888C239.783 31.888 240.231 31.824 240.615 31.696C241.015 31.568 241.463 31.392 241.959 31.168C242.439 30.912 242.791 30.784 243.015 30.784ZM238.863 24.088C238.047 24.088 237.391 24.344 236.895 24.856C236.415 25.368 236.127 26.104 236.031 27.064H241.455C241.423 26.088 241.183 25.352 240.735 24.856C240.287 24.344 239.663 24.088 238.863 24.088ZM252.549 22.024C252.965 21.992 253.293 22.08 253.533 22.288C253.773 22.496 253.893 22.808 253.893 23.224C253.893 23.656 253.789 23.976 253.581 24.184C253.373 24.392 252.997 24.528 252.453 24.592L251.733 24.664C250.789 24.76 250.093 25.08 249.645 25.624C249.213 26.168 248.997 26.848 248.997 27.664V32.704C248.997 33.168 248.853 33.528 248.565 33.784C248.277 34.024 247.917 34.144 247.485 34.144C247.053 34.144 246.693 34.024 246.405 33.784C246.133 33.528 245.997 33.168 245.997 32.704V23.416C245.997 22.968 246.133 22.624 246.405 22.384C246.693 22.144 247.045 22.024 247.461 22.024C247.877 22.024 248.213 22.144 248.469 22.384C248.725 22.608 248.853 22.936 248.853 23.368V24.328C249.157 23.624 249.605 23.08 250.197 22.696C250.805 22.312 251.477 22.096 252.213 22.048L252.549 22.024Z" fill="black"/>
<path d="M38.1262 34.7811C38.0747 34.7811 38.0239 34.7797 37.9733 34.7773C37.9412 34.7797 37.9072 34.7811 37.8734 34.7811C36.6885 34.7811 35.9282 34.2719 35.1926 33.7794C34.6849 33.4397 34.2057 33.1188 33.6413 33.0297C33.3658 32.9865 33.0915 32.9646 32.8264 32.9646C32.3491 32.9646 31.9725 33.0344 31.6975 33.0854C31.5305 33.1163 31.3861 33.1429 31.2767 33.1429C31.1624 33.1429 31.0383 33.1194 30.9844 32.9451C30.9374 32.7938 30.9036 32.6475 30.871 32.506C30.7872 32.1415 30.7274 31.9175 30.5662 31.894C28.6869 31.6192 28.1492 31.2441 28.0292 30.9782C28.0122 30.9402 28.0025 30.9022 28.0003 30.8643C27.9942 30.7621 28.0705 30.6719 28.1773 30.6553C31.066 30.2048 32.3614 27.4084 32.4153 27.2895C32.4167 27.2862 32.4184 27.2831 32.4198 27.2797C32.5967 26.9404 32.6312 26.6457 32.523 26.4045C32.3248 25.9618 31.6784 25.7673 31.2502 25.6387C31.1456 25.6073 31.0463 25.5776 30.9679 25.5485C30.114 25.2287 30.0429 24.9004 30.0765 24.733C30.1336 24.4479 30.536 24.2492 30.8611 24.2492C30.9504 24.2492 31.0289 24.2642 31.095 24.2935C31.4792 24.464 31.8253 24.5504 32.1242 24.5504C32.537 24.5504 32.717 24.3859 32.7392 24.3644C32.7286 24.1791 32.7156 23.9858 32.7024 23.7861C32.6164 22.4927 32.5096 20.8852 32.9417 19.9677C34.2367 17.2173 36.9831 17.0038 37.7937 17.0038C37.8145 17.0038 38.1493 17.0002 38.1493 17.0002L38.1973 17C39.0101 17 41.7624 17.2142 43.0581 19.9659C43.4902 20.8841 43.3834 22.4927 43.2972 23.7852L43.2936 23.8414C43.2816 24.0216 43.27 24.1966 43.2603 24.364C43.2811 24.3839 43.4468 24.5352 43.821 24.5486C44.1055 24.5383 44.4327 24.4524 44.7914 24.2932C44.8967 24.2469 45.0135 24.2371 45.0928 24.2371C45.2143 24.2371 45.3374 24.2592 45.4395 24.2997L45.4456 24.302C45.7357 24.3995 45.9259 24.592 45.93 24.7934C45.9337 24.9827 45.7811 25.2678 45.0317 25.5483C44.9539 25.5771 44.8547 25.6069 44.7495 25.6387C44.3212 25.7673 43.6748 25.9616 43.4768 26.404C43.3683 26.6455 43.403 26.9398 43.5798 27.2795C43.5814 27.2826 43.5831 27.2857 43.5845 27.2893C43.6384 27.4079 44.9327 30.2037 47.8227 30.6549C47.9293 30.6714 48.0056 30.7616 47.9997 30.8639C47.9973 30.9024 47.9874 30.9409 47.9701 30.9785C47.8511 31.2425 47.3136 31.6169 45.4335 31.8922C45.2802 31.9143 45.2207 32.1039 45.129 32.5016C45.0954 32.6461 45.0619 32.7882 45.0153 32.9377C44.9754 33.0673 44.8901 33.1279 44.7465 33.1279H44.7231C44.6236 33.1279 44.4819 33.1112 44.3025 33.0776C43.9843 33.0187 43.6273 32.9644 43.1734 32.9644C42.9083 32.9644 42.634 32.9863 42.3583 33.0295C41.7943 33.1185 41.3154 33.4388 40.8086 33.7783C40.0719 34.2719 39.3113 34.7811 38.1262 34.7811Z" fill="black"/>
<defs>
<linearGradient id="paint0_linear" x1="193.519" y1="46.75" x2="-18.6579" y2="-13.235" gradientUnits="userSpaceOnUse">
<stop stop-color="#FFFC01"/>
<stop offset="1" stop-color="#FFB801"/>
</linearGradient>
</defs>
</svg>
