<svg width="32" height="32" viewBox="0 0 32 32" fill="none" xmlns="http://www.w3.org/2000/svg">
<circle cx="16" cy="16" r="16" fill="white"/>
<path d="M24.8078 20.8285C24.2582 21.35 23.4712 21.4032 22.777 21.45C22.3342 21.4799 21.8764 21.5107 21.6088 21.6597C21.3506 21.8035 21.0844 22.1725 20.8269 22.5293C20.4127 23.1033 19.9432 23.7541 19.1998 23.9464C18.483 24.132 17.7759 23.7987 17.1521 23.5047C16.7429 23.3119 16.3196 23.1125 16.0006 23.1125C15.6817 23.1125 15.2584 23.3119 14.8491 23.5047C14.3503 23.7398 13.7981 23.9999 13.2305 23.9999C13.0858 24.0004 12.9417 23.9824 12.8015 23.9464C12.058 23.7541 11.5886 23.1034 11.1743 22.5292C10.9169 22.1724 10.6506 21.8034 10.3924 21.6597C10.1249 21.5107 9.66703 21.4799 9.22434 21.45C8.52998 21.4032 7.74306 21.3501 7.19349 20.8285C7.12049 20.7593 7.06538 20.673 7.03298 20.5772C7.00058 20.4814 6.99188 20.3791 7.00764 20.2791C7.0234 20.1791 7.06314 20.0846 7.12339 20.0037C7.18363 19.9229 7.26255 19.8582 7.35324 19.8153C7.374 19.8052 8.30802 19.344 9.22618 18.1635C9.81167 17.4031 10.2616 16.5452 10.5556 15.6285L9.03081 15.0119C8.87988 14.9509 8.75911 14.8317 8.69507 14.6807C8.63103 14.5296 8.62897 14.359 8.68934 14.2064C8.74971 14.0538 8.86756 13.9317 9.01698 13.8669C9.16639 13.8022 9.33513 13.8001 9.48606 13.8611L10.8691 14.4205C11.0246 13.6091 11.101 12.7842 11.0972 11.9577C11.0972 10.6428 11.6138 9.38182 12.5334 8.45207C13.453 7.52233 14.7001 7 16.0006 7C17.3011 7 18.5483 7.52233 19.4678 8.45207C20.3874 9.38182 20.904 10.6428 20.904 11.9577C20.9002 12.7842 20.9766 13.6091 21.1321 14.4205L22.5152 13.8612C22.6657 13.8019 22.8334 13.8052 22.9816 13.8702C23.1298 13.9352 23.2466 14.0568 23.3066 14.2085C23.3667 14.3602 23.365 14.5297 23.302 14.6802C23.2391 14.8306 23.1199 14.9499 22.9704 15.0119L21.4457 15.6285C21.7397 16.5452 22.1896 17.4031 22.775 18.1635C23.699 19.3514 24.6389 19.811 24.6483 19.8155C24.7386 19.8587 24.8172 19.9236 24.8771 20.0044C24.9371 20.0853 24.9766 20.1797 24.9924 20.2795C25.0081 20.3793 24.9995 20.4814 24.9673 20.5771C24.9352 20.6728 24.8804 20.7591 24.8078 20.8285Z" fill="black"/>
</svg>
