<svg width="30" height="30" viewBox="0 0 30 30" fill="none" xmlns="http://www.w3.org/2000/svg">
<path fill-rule="evenodd" clip-rule="evenodd" d="M15 29.75C23.1462 29.75 29.75 23.1462 29.75 15C29.75 6.8538 23.1462 0.25 15 0.25C6.8538 0.25 0.25 6.8538 0.25 15C0.25 23.1462 6.8538 29.75 15 29.75ZM16.7791 7.62844C16.2958 7.62917 15.8117 7.62991 15.3252 7.63728C15.3136 9.18133 15.3141 10.7254 15.3146 12.2709C15.3149 13.1984 15.3152 14.1264 15.3129 15.0552C15.3112 15.3448 15.3117 15.6339 15.3123 15.9228C15.3137 16.7316 15.3151 17.5388 15.2695 18.3493C15.2637 18.575 15.1481 18.7734 15.0365 18.9651C15.0296 18.977 15.0226 18.9889 15.0158 19.0008C14.6567 19.5846 13.9944 19.9841 13.3012 19.9903C12.2613 20.0824 11.2833 19.2343 11.1348 18.2264C11.1338 18.1749 11.1321 18.123 11.1304 18.0711C11.1211 17.7884 11.1116 17.5017 11.2214 17.237C11.3762 16.8006 11.6733 16.4134 12.0632 16.1614C12.6017 15.7927 13.3198 15.7374 13.9325 15.9341C13.9325 15.5442 13.9394 15.1544 13.9462 14.7646C13.9553 14.2449 13.9644 13.7251 13.9573 13.2053C12.6141 12.9534 11.1781 13.3774 10.1506 14.2624C9.24688 15.0245 8.66504 16.143 8.55362 17.3107C8.54124 17.6118 8.54743 17.9191 8.55981 18.2264C8.6898 19.6645 9.56875 21.0043 10.8191 21.7356C11.5742 22.1781 12.4594 22.4178 13.3445 22.3687C14.7867 22.3441 16.1918 21.5759 17.0027 20.3959C17.504 19.6891 17.7888 18.8349 17.8383 17.9744C17.8499 16.8567 17.8494 15.7365 17.8489 14.6155C17.8486 13.9429 17.8484 13.2699 17.8507 12.5969C18.1725 12.8059 18.5006 13.0087 18.8534 13.1685C19.6643 13.5495 20.5618 13.7339 21.4531 13.7646V11.2879C20.4999 11.1834 19.5219 10.87 18.8287 10.1878C18.1354 9.52403 17.795 8.56529 17.7454 7.62499C17.4235 7.62745 17.1015 7.62794 16.7791 7.62844Z" fill="white"/>
</svg>
